<svg xmlns="http://www.w3.org/2000/svg" viewBox="0 0 500 500"><defs><style>.e91de51c-aaa1-4309-8ece-d2d23a084ce0{fill:#fff;}</style></defs><g id="b28f42de-76cd-457a-9025-b0e91f564103" data-name="admin-icon"><rect class="e91de51c-aaa1-4309-8ece-d2d23a084ce0" x="29.61" y="232.09" width="440.78" height="181.69" rx="10"/><path class="e91de51c-aaa1-4309-8ece-d2d23a084ce0" d="M241.34,91.46,157.26,237.09a10,10,0,0,0,8.66,15H334.08a10,10,0,0,0,8.66-15L258.66,91.46A10,10,0,0,0,241.34,91.46Z"/><path class="e91de51c-aaa1-4309-8ece-d2d23a084ce0" d="M464.34,88,371.8,248.22a3.25,3.25,0,0,0,2.81,4.87h92.54a3.24,3.24,0,0,0,3.24-3.24V89.57A3.24,3.24,0,0,0,464.34,88Z"/><path class="e91de51c-aaa1-4309-8ece-d2d23a084ce0" d="M128.23,248.28,35.59,87.83a3.2,3.2,0,0,0-6,1.6V249.88a3.21,3.21,0,0,0,3.21,3.21h92.63A3.21,3.21,0,0,0,128.23,248.28Z"/></g></svg>