<svg xmlns="http://www.w3.org/2000/svg" xmlns:xlink="http://www.w3.org/1999/xlink" viewBox="0 0 500 500"><defs><style>.ba684ef9-668e-4edc-8ff2-8f620a9ba782,.e680afa0-3d94-4cce-a9ff-48d6e12d29a7,.f2e4d078-1629-4a60-b2f0-ec9f06888877{fill:none;}.e680afa0-3d94-4cce-a9ff-48d6e12d29a7,.f2e4d078-1629-4a60-b2f0-ec9f06888877{stroke:#ff8e52;stroke-miterlimit:10;}.e680afa0-3d94-4cce-a9ff-48d6e12d29a7{stroke-width:40px;}.f2e4d078-1629-4a60-b2f0-ec9f06888877{stroke-linecap:round;stroke-width:20px;}.adb1cde7-d8a8-4d75-a7f5-3f7f79dc5ee1{clip-path:url(#a8810670-26f4-4a14-992a-1d740eb8f7d6);}.a80c750d-3784-4456-8376-ab258d8db254{fill:#ff8e52;}</style><clipPath id="a8810670-26f4-4a14-992a-1d740eb8f7d6"><rect class="ba684ef9-668e-4edc-8ff2-8f620a9ba782" x="121.55" y="111.26" width="295.66" height="295.66"/></clipPath></defs><g id="b0697611-8ca1-4cc7-844f-3e8aeeba961d" data-name="berry-coin-icon"><circle class="e680afa0-3d94-4cce-a9ff-48d6e12d29a7" cx="250" cy="250" r="191.97"/><path class="f2e4d078-1629-4a60-b2f0-ec9f06888877" d="M232,107.94s-63.34,11.76-95.62,61.92"/><g class="adb1cde7-d8a8-4d75-a7f5-3f7f79dc5ee1"><g class="adb1cde7-d8a8-4d75-a7f5-3f7f79dc5ee1"><path class="a80c750d-3784-4456-8376-ab258d8db254" d="M368.12,179.41c-18.67-2.36-82.09-1.25-116.84,27.88-14.66,12.28-24.23,29.53-23.2,53.61.4,9,2.11,8.34,4.11,24.43,4.12-9.7,3.53-32.12,5.45-39.19a45.13,45.13,0,0,1,15.81-23.62c9.31,10.75,36.45,11.85,65.11,1.82,30.62-10.74,51.95-30.35,49.56-44.93"/></g><g class="adb1cde7-d8a8-4d75-a7f5-3f7f79dc5ee1"><path class="a80c750d-3784-4456-8376-ab258d8db254" d="M246,226.25a63,63,0,1,0,41.07,79,63,63,0,0,0-41.07-79"/></g><g class="adb1cde7-d8a8-4d75-a7f5-3f7f79dc5ee1"><path class="a80c750d-3784-4456-8376-ab258d8db254" d="M316.3,175.62c19-2.17,37-.94,51.74,2.9-6.45-18.75-34.74-29.27-65.91-23.75-32.6,5.77-56.21,27-53.52,47.69,14-13.16,38.74-23.55,67.69-26.84"/></g></g></g></svg>