<svg xmlns="http://www.w3.org/2000/svg" xmlns:xlink="http://www.w3.org/1999/xlink" viewBox="0 0 500 500"><defs><style>.cls-1,.cls-2,.cls-3{fill:none;}.cls-2,.cls-3{stroke:#fff;stroke-miterlimit:10;}.cls-2{stroke-width:40px;}.cls-3{stroke-linecap:round;stroke-width:20px;}.cls-4{clip-path:url(#clip-path);}.cls-5{fill:#fff;}</style><clipPath id="clip-path"><rect class="cls-1" x="121.55" y="111.26" width="295.66" height="295.66"/></clipPath></defs><g id="coin-enabled-icon"><circle class="cls-2" cx="250" cy="250" r="191.97"/><path class="cls-3" d="M232,107.94s-63.34,11.76-95.62,61.92"/><g class="cls-4"><g class="cls-4"><path class="cls-5" d="M368.12,179.41c-18.66-2.36-82.09-1.25-116.84,27.88-14.66,12.28-24.23,29.53-23.2,53.61.4,9,2.11,8.34,4.11,24.43,4.12-9.7,3.53-32.12,5.45-39.19a45.13,45.13,0,0,1,15.81-23.62c9.31,10.75,36.45,11.85,65.11,1.82,30.62-10.74,52-30.35,49.56-44.93"/></g><g class="cls-4"><path class="cls-5" d="M246,226.25a63,63,0,1,0,41.07,79,63,63,0,0,0-41.07-79"/></g><g class="cls-4"><path class="cls-5" d="M316.31,175.62c19-2.17,36.95-.94,51.73,2.9-6.45-18.75-34.74-29.27-65.91-23.75-32.6,5.77-56.21,27-53.52,47.69,14-13.16,38.74-23.55,67.7-26.84"/></g></g></g></svg>