<svg xmlns="http://www.w3.org/2000/svg" viewBox="0 0 500 500"><defs><style>.cls-1,.cls-2,.cls-3,.cls-4{fill:#fff;}.cls-1,.cls-2,.cls-4{stroke:#fff;stroke-miterlimit:10;}.cls-1{stroke-width:30px;}.cls-2{stroke-width:12px;}.cls-4{stroke-width:10px;}</style></defs><g id="off-icon"><rect class="cls-1" x="203.73" y="40.33" width="92.54" height="27.33" rx="5.86"/><rect class="cls-1" x="210.66" y="78.09" width="78.67" height="25.11" rx="5.18" transform="translate(159.35 340.65) rotate(-90)"/><rect class="cls-2" x="365.55" y="125.93" width="44.05" height="16.87" rx="3.36" transform="translate(181.82 -220.51) rotate(40.77)"/><path class="cls-3" d="M291.66,419.44A135.06,135.06,0,0,1,250,426c-74.72,0-135.51-60.79-135.51-135.51S175.28,155,250,155s135.51,60.79,135.51,135.51a135.14,135.14,0,0,1-3.77,31.75L426.37,348a184.9,184.9,0,0,0,9.14-57.52C435.51,188.2,352.29,105,250,105S64.49,188.2,64.49,290.49,147.71,476,250,476a185.12,185.12,0,0,0,41.66-4.72Z"/><rect class="cls-4" x="199.68" y="196.82" width="15.56" height="101.33" rx="7.78" transform="translate(-114.07 217.42) rotate(-44.69)"/><path class="cls-3" d="M459.31,392.81,324.52,315A7,7,0,0,0,314,321.07V476.71a7,7,0,0,0,10.53,6.08L459.31,405A7,7,0,0,0,459.31,392.81Z"/></g></svg>