<svg xmlns="http://www.w3.org/2000/svg" viewBox="0 0 500 500"><defs><style>.a57be589-af41-42de-85da-528015525663{fill:#fff;}</style></defs><g id="b017c6ff-2d8b-4d1f-b44f-aaa8c2c7ac84" data-name="likes-icon"><rect class="a57be589-af41-42de-85da-528015525663" x="21.7" y="31.69" width="456.59" height="56.04" rx="10"/><rect class="a57be589-af41-42de-85da-528015525663" x="21.7" y="124.71" width="456.59" height="56.04" rx="10"/><rect class="a57be589-af41-42de-85da-528015525663" x="21.7" y="217.74" width="184.3" height="56.04" rx="10"/><rect class="a57be589-af41-42de-85da-528015525663" x="21.7" y="310.76" width="184.3" height="56.04" rx="10"/><rect class="a57be589-af41-42de-85da-528015525663" x="21.7" y="403.78" width="184.3" height="56.04" rx="10"/><path class="a57be589-af41-42de-85da-528015525663" d="M478.3,291.19c0,58.37-86.26,143.34-118,172.61a17,17,0,0,1-23.05,0c-31.71-29.27-118-114.24-118-172.61,0-70.49,73.32-119.61,127.13-39.64a3,3,0,0,0,4.9.12C412.62,169.09,478.3,220.64,478.3,291.19Z"/></g></svg>