<svg xmlns="http://www.w3.org/2000/svg" viewBox="0 0 500 500"><defs><style>.cls-1{fill:#fff;}</style></defs><g id="likes-icon"><rect class="cls-1" x="58.63" y="272.01" width="195.03" height="40.12" rx="7.2"/><rect class="cls-1" x="58.63" y="359.73" width="195.03" height="40.12" rx="7.2"/><rect class="cls-1" x="58.63" y="184.28" width="290.63" height="40.12" rx="8.79"/><rect class="cls-1" x="58.63" y="96.55" width="290.63" height="40.12" rx="8.79"/><path class="cls-1" d="M455,312.23c0,38.09-56.29,93.54-77,112.64a11.09,11.09,0,0,1-15,0c-20.69-19.1-77-74.55-77-112.64,0-46,47.85-78.05,83-25.87a2,2,0,0,0,3.2.08C412.14,232.55,455,266.2,455,312.23Z"/></g></svg>