<svg xmlns="http://www.w3.org/2000/svg" viewBox="0 0 500 500"><defs><style>.f43a77e1-7777-4afd-920c-9ee470d6e629{fill:#fff;}</style></defs><g id="bcfd80d6-c020-4cfd-a829-e1de05bb8627" data-name="force-play-icon"><path class="f43a77e1-7777-4afd-920c-9ee470d6e629" d="M203.14,242.83,44.14,151a8.28,8.28,0,0,0-12.42,7.17V341.8A8.28,8.28,0,0,0,44.14,349l159-91.79A8.29,8.29,0,0,0,203.14,242.83Z"/><path class="f43a77e1-7777-4afd-920c-9ee470d6e629" d="M387,242.83,228,151a8.28,8.28,0,0,0-12.42,7.17V341.8A8.28,8.28,0,0,0,228,349l159-91.79A8.29,8.29,0,0,0,387,242.83Z"/><rect class="f43a77e1-7777-4afd-920c-9ee470d6e629" x="400.52" y="148.66" width="67.77" height="202.68" rx="6.08"/></g></svg>