<svg xmlns="http://www.w3.org/2000/svg" viewBox="0 0 500 500"><defs><style>.cls-1{fill:none;stroke:#fff;stroke-linecap:round;stroke-miterlimit:10;stroke-width:40px;}.cls-2{fill:#fff;}</style></defs><g id="lock-icon"><path class="cls-1" d="M169.27,175.7s-18-97,81.48-97c98,0,81.47,97,81.47,97"/><path class="cls-2" d="M355,206.24H146a11.81,11.81,0,0,0-11.81,11.81v209A11.82,11.82,0,0,0,146,438.91H355a11.82,11.82,0,0,0,11.81-11.82v-209A11.81,11.81,0,0,0,355,206.24ZM263.38,338.91v26.66a7.84,7.84,0,0,1-7.84,7.84h-9.81a7.84,7.84,0,0,1-7.84-7.84V338.91a34.73,34.73,0,1,1,25.49,0Z"/></g></svg>