<svg xmlns="http://www.w3.org/2000/svg" xmlns:xlink="http://www.w3.org/1999/xlink" viewBox="0 0 500 500"><defs><style>.a60542b7-8531-47c6-85d6-f612e9931dda,.bc368315-7a66-457c-9164-e263441a0f8c,.be6da86e-b4b2-4d4a-bc29-669d44c184ff{fill:none;}.a60542b7-8531-47c6-85d6-f612e9931dda,.bc368315-7a66-457c-9164-e263441a0f8c{stroke:#ff8e52;stroke-miterlimit:10;}.a60542b7-8531-47c6-85d6-f612e9931dda{stroke-width:40px;}.bc368315-7a66-457c-9164-e263441a0f8c{stroke-linecap:round;stroke-width:20px;}.f610a7df-6efa-4ff6-9887-173fdb62026f{clip-path:url(#e821675f-d3f5-4671-a0a2-05cc4287da5c);}.aab6c4a9-3fd1-414a-bd97-ad6d1cef0666{fill:#ff8e52;}.aef608d1-6650-4793-8153-19691a5dfb50{fill:#fff;}</style><clipPath id="e821675f-d3f5-4671-a0a2-05cc4287da5c"><rect class="be6da86e-b4b2-4d4a-bc29-669d44c184ff" x="156.22" y="148.7" width="215.87" height="215.87"/></clipPath></defs><g id="a71177e1-41b4-444d-bb8d-77e8b6c7f237" data-name="no-coin-icon"><circle class="a60542b7-8531-47c6-85d6-f612e9931dda" cx="250" cy="250" r="140.16"/><path class="bc368315-7a66-457c-9164-e263441a0f8c" d="M236.85,146.28S190.6,154.86,167,191.49"/><g class="f610a7df-6efa-4ff6-9887-173fdb62026f"><g class="f610a7df-6efa-4ff6-9887-173fdb62026f"><path class="aab6c4a9-3fd1-414a-bd97-ad6d1cef0666" d="M336.24,198.46c-13.63-1.72-59.94-.91-85.31,20.36-10.7,9-17.69,21.56-16.93,39.14.28,6.57,1.54,6.09,3,17.84,3-7.09,2.58-23.46,4-28.62a33,33,0,0,1,11.55-17.24c6.8,7.85,26.61,8.65,47.53,1.33,22.37-7.85,37.94-22.16,36.19-32.81"/></g><g class="f610a7df-6efa-4ff6-9887-173fdb62026f"><path class="aab6c4a9-3fd1-414a-bd97-ad6d1cef0666" d="M247.05,232.66a46,46,0,1,0,30,57.68,46,46,0,0,0-30-57.68"/></g><g class="f610a7df-6efa-4ff6-9887-173fdb62026f"><path class="aab6c4a9-3fd1-414a-bd97-ad6d1cef0666" d="M298.41,195.69c13.89-1.58,27-.68,37.78,2.12-4.72-13.69-25.37-21.37-48.13-17.34-23.8,4.21-41,19.68-39.07,34.82,10.25-9.61,28.28-17.19,49.42-19.6"/></g></g><rect class="aef608d1-6650-4793-8153-19691a5dfb50" x="49" y="214.75" width="402" height="70.5" rx="10" transform="translate(-103.55 250) rotate(-45)"/><rect class="aef608d1-6650-4793-8153-19691a5dfb50" x="49" y="214.75" width="402" height="70.5" rx="10" transform="translate(250 603.55) rotate(-135)"/></g></svg>