<svg xmlns="http://www.w3.org/2000/svg" viewBox="0 0 500 500"><defs><style>.cls-1{fill:#fff;}</style></defs><g id="play-later-icon"><rect class="cls-1" x="167.24" y="266.92" width="290.63" height="40.12" rx="8.79"/><rect class="cls-1" x="261.24" y="354.65" width="197.33" height="40.12" rx="7.24"/><rect class="cls-1" x="167.24" y="179.19" width="290.63" height="40.12" rx="8.79"/><rect class="cls-1" x="167.24" y="91.46" width="290.63" height="40.12" rx="8.79"/><path class="cls-1" d="M225.2,378.72l-94.88,43.6a4.42,4.42,0,0,1-6.26-4V331.11a4.41,4.41,0,0,1,6.26-4l94.88,43.59A4.42,4.42,0,0,1,225.2,378.72Z"/><path class="cls-1" d="M-37.87,263.94h211a4.26,4.26,0,0,1,4.26,4.26v0A28.78,28.78,0,0,1,148.62,297H-37.87a4.26,4.26,0,0,1-4.26-4.26V268.2a4.26,4.26,0,0,1,4.26-4.26Z" transform="translate(348.09 212.83) rotate(90)"/><path class="cls-1" d="M54.14,359.19H161.68a3,3,0,0,1,3,3v25a3,3,0,0,1-3,3H77.91a26.8,26.8,0,0,1-26.8-26.8v-1.21a3,3,0,0,1,3-3Z"/><path class="cls-1" d="M95.15,359.19h-11v-11Q84.82,358.51,95.15,359.19Z"/></g></svg>