<svg xmlns="http://www.w3.org/2000/svg" viewBox="0 0 500 500"><defs><style>.cls-1{fill:#fff;}</style></defs><g id="fast-forward-icon"><rect class="cls-1" x="250" y="35.93" width="228.3" height="56.04" rx="7.07"/><rect class="cls-1" x="250" y="128.96" width="228.3" height="56.04" rx="7.07"/><rect class="cls-1" x="250" y="221.98" width="228.3" height="56.04" rx="9.21"/><rect class="cls-1" x="21.7" y="315" width="456.59" height="56.04" rx="13.02"/><rect class="cls-1" x="21.7" y="408.02" width="456.59" height="56.04" rx="13.02"/><path class="cls-1" d="M-32.29,155.57H114.5a40,40,0,0,1,40,40v7.69a5.21,5.21,0,0,1-5.21,5.21H-32.29a5.21,5.21,0,0,1-5.21-5.21V160.78A5.21,5.21,0,0,1-32.29,155.57Z" transform="translate(-123.52 240.52) rotate(-90)"/><path class="cls-1" d="M71.93,86h99a4.52,4.52,0,0,1,4.52,4.52v44.11a4.52,4.52,0,0,1-4.52,4.52H36.44a4.52,4.52,0,0,1-4.52-4.52V126a40,40,0,0,1,40-40Z"/><path class="cls-1" d="M232.25,108.51,146.89,46.73a5,5,0,0,0-7.92,4V174.34a5,5,0,0,0,7.92,4l85.36-61.78A5,5,0,0,0,232.25,108.51Z"/></g></svg>