<svg xmlns="http://www.w3.org/2000/svg" viewBox="0 0 500 500"><defs><style>.cls-1{fill:#fff;}</style></defs><g id="play-later-icon"><rect class="cls-1" x="21.7" y="35.93" width="456.59" height="56.04" rx="10"/><rect class="cls-1" x="21.7" y="128.96" width="456.59" height="56.04" rx="10"/><rect class="cls-1" x="250" y="221.98" width="228.3" height="56.04" rx="9.21"/><rect class="cls-1" x="250" y="315" width="228.3" height="56.04" rx="9.21"/><rect class="cls-1" x="250" y="408.02" width="228.3" height="56.04" rx="9.21"/><path class="cls-1" d="M-32.29,291.53H149.29a5.21,5.21,0,0,1,5.21,5.21v7.69a40,40,0,0,1-40,40H-32.29a5.21,5.21,0,0,1-5.21-5.21V296.74a5.21,5.21,0,0,1,5.21-5.21Z" transform="translate(376.48 259.48) rotate(90)"/><path class="cls-1" d="M36.44,360.84H171a4.52,4.52,0,0,1,4.52,4.52v44.11A4.52,4.52,0,0,1,171,414h-99a40,40,0,0,1-40-40v-8.63a4.52,4.52,0,0,1,4.52-4.52Z"/><path class="cls-1" d="M232.25,391.49l-85.36,61.78a5,5,0,0,1-7.92-4V325.66a5,5,0,0,1,7.92-4l85.36,61.78A5,5,0,0,1,232.25,391.49Z"/></g></svg>