<svg xmlns="http://www.w3.org/2000/svg" viewBox="0 0 500 500"><defs><style>.cls-1{fill:#fff;}</style></defs><g id="play-next-icon"><rect class="cls-1" x="167.24" y="206.95" width="290.63" height="40.12" rx="8.79"/><rect class="cls-1" x="261.24" y="119.22" width="197.33" height="40.12" rx="7.24"/><rect class="cls-1" x="167.24" y="294.68" width="290.63" height="40.12" rx="8.79"/><rect class="cls-1" x="167.24" y="382.41" width="290.63" height="40.12" rx="8.79"/><path class="cls-1" d="M224.73,121.47l-94.88-43.6a4.42,4.42,0,0,0-6.26,4v87.19a4.42,4.42,0,0,0,6.26,4l94.88-43.6A4.41,4.41,0,0,0,224.73,121.47Z"/><path class="cls-1" d="M-38.34,203.21H148.16A28.78,28.78,0,0,1,176.93,232v0a4.26,4.26,0,0,1-4.26,4.26h-211A4.26,4.26,0,0,1-42.6,232V207.47a4.26,4.26,0,0,1,4.26-4.26Z" transform="translate(-152.56 286.89) rotate(-90)"/><path class="cls-1" d="M77.45,110h83.77a3,3,0,0,1,3,3v25a3,3,0,0,1-3,3H53.67a3,3,0,0,1-3-3v-1.21A26.8,26.8,0,0,1,77.45,110Z"/><path class="cls-1" d="M94.69,141h-11v11Q84.35,141.67,94.69,141Z"/></g></svg>