<svg xmlns="http://www.w3.org/2000/svg" viewBox="0 0 500 500"><defs><style>.b280eba3-2d5a-43ea-8bb4-fc332b5a3888{fill:#fff;}.af264447-4aff-49ca-9c77-372c38b37340{fill:none;stroke:#fff;stroke-linecap:round;stroke-linejoin:round;stroke-width:45px;}</style></defs><g id="aaf0f3cc-107c-4c35-b837-3efcb68f30d0" data-name="random-icon"><path class="b280eba3-2d5a-43ea-8bb4-fc332b5a3888" d="M47.4,151.35c78.37,0,110.35,28.35,132,67.22,6.32-14,13.44-28.38,22.36-42.14a159.39,159.39,0,0,0-19.94-22.58c-31.75-29.61-75.73-44-134.43-44a20.76,20.76,0,0,0,0,41.51Z"/><path class="b280eba3-2d5a-43ea-8bb4-fc332b5a3888" d="M375.68,348.65c-86.87,0-110.09-39.32-132.76-91.23q-2.13,4.93-4.31,10c-5.41,12.65-11.12,26-17.94,39.2,8.28,14.93,18.16,29.11,31.13,41.53,29.5,28.24,70,42,123.88,42a20.76,20.76,0,1,0,0-41.51Z"/><path class="b280eba3-2d5a-43ea-8bb4-fc332b5a3888" d="M472,128.39,379.39,78.07a2.52,2.52,0,0,0-3.71,2.21V180.92a2.51,2.51,0,0,0,3.71,2.2L472,132.8A2.51,2.51,0,0,0,472,128.39Z"/><path class="b280eba3-2d5a-43ea-8bb4-fc332b5a3888" d="M472,367.2l-92.65-50.32a2.51,2.51,0,0,0-3.71,2.2V419.72a2.52,2.52,0,0,0,3.71,2.21L472,371.61A2.51,2.51,0,0,0,472,367.2Z"/><path class="af264447-4aff-49ca-9c77-372c38b37340" d="M375.68,130.6C142.18,130.6,266,369.4,47.4,369.4"/></g></svg>