<svg xmlns="http://www.w3.org/2000/svg" viewBox="0 0 500 500"><defs><style>.b4b471f8-0324-4536-bf07-5e16476ecc34{fill:#fff;}.a8306af0-43ca-4e22-a10a-0cc8046b3a9c{fill:none;stroke:#fff;stroke-linecap:round;stroke-linejoin:round;stroke-width:45px;}</style></defs><g id="efcbc41b-acac-4905-ad46-1d30106af8bd" data-name="random-icon"><path class="b4b471f8-0324-4536-bf07-5e16476ecc34" d="M47.2,134.41c78.36,0,110.35,33.21,132,78.76,6.32-16.44,13.44-33.26,22.35-49.38a181,181,0,0,0-19.93-26.46C149.87,102.63,105.9,85.77,47.2,85.77c-11.46,0-20.76,10.88-20.76,24.32S35.74,134.41,47.2,134.41Z"/><path class="b4b471f8-0324-4536-bf07-5e16476ecc34" d="M375.48,365.59c-86.87,0-110.09-46.07-132.76-106.9q-2.15,5.79-4.31,11.77c-5.41,14.82-11.12,30.46-17.94,45.93,8.28,17.5,18.15,34.11,31.12,48.66,29.51,33.1,70,49.18,123.89,49.18,11.46,0,20.76-10.88,20.76-24.32S386.94,365.59,375.48,365.59Z"/><path class="b4b471f8-0324-4536-bf07-5e16476ecc34" d="M472.3,107.8l-92.65-59a2.71,2.71,0,0,0-4.17,2.29V169.05a2.71,2.71,0,0,0,4.17,2.29l92.65-59A2.71,2.71,0,0,0,472.3,107.8Z"/><path class="b4b471f8-0324-4536-bf07-5e16476ecc34" d="M472.3,387.62l-92.65-59a2.71,2.71,0,0,0-4.17,2.29V448.87a2.71,2.71,0,0,0,4.17,2.29l92.65-59A2.71,2.71,0,0,0,472.3,387.62Z"/><path class="a8306af0-43ca-4e22-a10a-0cc8046b3a9c" d="M375.48,110.09c-233.5,0-109.7,279.82-328.28,279.82"/></g></svg>