<svg xmlns="http://www.w3.org/2000/svg" viewBox="0 0 500 500"><g id="history-icon"><path d="M334,150.26H166a10.81,10.81,0,0,0-10.82,10.81V464.63A10.82,10.82,0,0,0,166,475.45H334a10.82,10.82,0,0,0,10.82-10.82V161.07A10.81,10.81,0,0,0,334,150.26Zm-84,317a10.82,10.82,0,1,1,10.82-10.81A10.81,10.81,0,0,1,250,467.27Zm75.95-30H174.05V170.45H326Z"/><path d="M250,16.82A157.2,157.2,0,0,0,138.49,63L152,76.49a138.48,138.48,0,0,1,196.06,0L361.51,63A157.2,157.2,0,0,0,250,16.82Z"/><path d="M167.38,91.9l13.46,13.46a97.7,97.7,0,0,1,138.32,0L332.62,91.9a116.82,116.82,0,0,0-165.24,0Z"/><path d="M196.26,120.78l13.45,13.46a56.9,56.9,0,0,1,80.58,0l13.45-13.46a76,76,0,0,0-107.48,0Z"/></g></svg>