<svg xmlns="http://www.w3.org/2000/svg" viewBox="0 0 500 500"><g id="resolve-issue-icon"><path class="cls-1" d="M462,250c0,116.88-95.09,212-212,212S38,366.88,38,250,133.12,38,250,38a211.65,211.65,0,0,1,163.57,77.29l-28.44,28.44A171.74,171.74,0,0,0,250,78C155.18,78,78,155.18,78,250s77.15,172,172,172,172-77.15,172-172a171.56,171.56,0,0,0-2.54-29.48l33.11-33.11A211.2,211.2,0,0,1,462,250Z"/><path class="cls-1" d="M273.84,303.92H250v-190h29.81a10,10,0,0,1,10,10.35l-6,170A10,10,0,0,1,273.84,303.92Z"/><path class="cls-1" d="M226.16,303.92H250v-190H220.19a10,10,0,0,0-10,10.35l6,170A10,10,0,0,0,226.16,303.92Z"/><circle class="cls-1" cx="250" cy="353.92" r="32.17"/><path class="cls-1" d="M343.19,147.41H498.8a3.88,3.88,0,0,1,3.88,3.88v20.39a3.88,3.88,0,0,1-3.88,3.88H343.19a0,0,0,0,1,0,0V147.41a0,0,0,0,1,0,0Z" transform="translate(9.69 346.35) rotate(-45)"/><path class="cls-1" d="M314.36,173.79H394.6a3.88,3.88,0,0,1,3.88,3.88v20.39a3.88,3.88,0,0,1-3.88,3.88H314.36a0,0,0,0,1,0,0V173.79A0,0,0,0,1,314.36,173.79Z" transform="translate(475.6 572.72) rotate(-135)"/></g></svg>