<svg id="settings-icon" xmlns="http://www.w3.org/2000/svg" viewBox="0 0 550 550"><defs><style>.cls-1{fill:#fff;}</style></defs><title>settings-icon</title><rect class="cls-1" x="205.98" y="50.17" width="138.04" height="56"/><rect class="cls-1" x="205.98" y="445.83" width="138.04" height="56"/><rect class="cls-1" x="374.83" y="143.92" width="138.04" height="56" transform="translate(359.31 -296.5) rotate(58.6)"/><rect class="cls-1" x="37.12" y="350.08" width="138.04" height="56" transform="translate(373.54 90.48) rotate(58.6)"/><rect class="cls-1" x="372.85" y="353.26" width="138.04" height="56" transform="translate(1000.81 213.34) rotate(122.49)"/><rect class="cls-1" x="39.11" y="140.74" width="138.04" height="56" transform="translate(308.54 168.16) rotate(122.49)"/><path class="cls-1" d="M275,79.67C167.12,79.67,79.67,167.12,79.67,275S167.12,470.33,275,470.33,470.33,382.88,470.33,275,382.88,79.67,275,79.67Zm0,297.72A102.39,102.39,0,1,1,377.39,275,102.39,102.39,0,0,1,275,377.39Z"/></svg>