<svg id="settings-icon" xmlns="http://www.w3.org/2000/svg" viewBox="0 0 550 550"><defs><style>.cls-1,.cls-2{fill:#fff;}.cls-1{stroke:#fff;stroke-miterlimit:10;stroke-width:30px;}</style></defs><title>settings-icon</title><path class="cls-1" d="M275,91.67A183.33,183.33,0,1,0,458.33,275,183.33,183.33,0,0,0,275,91.67ZM275,419A144,144,0,1,1,419,275,144,144,0,0,1,275,419Z"/><rect class="cls-2" x="205.98" y="50.17" width="138.04" height="56"/><rect class="cls-2" x="205.98" y="445.83" width="138.04" height="56"/><rect class="cls-2" x="374.83" y="143.92" width="138.04" height="56" transform="translate(359.31 -296.5) rotate(58.6)"/><rect class="cls-2" x="37.12" y="350.08" width="138.04" height="56" transform="translate(373.54 90.48) rotate(58.6)"/><rect class="cls-2" x="372.85" y="353.26" width="138.04" height="56" transform="translate(1000.81 213.34) rotate(122.49)"/><rect class="cls-2" x="39.11" y="140.74" width="138.04" height="56" transform="translate(308.54 168.16) rotate(122.49)"/></svg>