<svg xmlns="http://www.w3.org/2000/svg" viewBox="0 0 500 500"><defs><style>.b360fdd0-0501-48e6-bffa-10d39911426e{fill:#fff;}</style></defs><g id="bd575839-2ebb-4abe-8243-60e8aaee4aca" data-name="success-icon"><path class="b360fdd0-0501-48e6-bffa-10d39911426e" d="M95.74,211.64H497.07a10,10,0,0,1,10,10v52.58a10,10,0,0,1-10,10H95.74a0,0,0,0,1,0,0V211.64A0,0,0,0,1,95.74,211.64Z" transform="translate(-87.03 285.74) rotate(-45)"/><path class="b360fdd0-0501-48e6-bffa-10d39911426e" d="M21.39,279.68H228.33a10,10,0,0,1,10,10v52.58a10,10,0,0,1-10,10H21.39a0,0,0,0,1,0,0V279.68A0,0,0,0,1,21.39,279.68Z" transform="translate(-1.73 631.22) rotate(-135)"/></g></svg>