<svg xmlns="http://www.w3.org/2000/svg" viewBox="0 0 500 500"><defs><style>.a090726c-a38f-4c37-99c8-95cc47e0621a,.ed4ae1f6-bbf5-410f-9f6e-742958b1ac06{fill:none;stroke:#fff;stroke-miterlimit:10;}.a090726c-a38f-4c37-99c8-95cc47e0621a{stroke-width:33px;}.fb2eb5f9-051b-43be-9d14-86287c00a09a{fill:#fff;}.ed4ae1f6-bbf5-410f-9f6e-742958b1ac06{stroke-width:20px;}</style></defs><g id="a7932ac1-0d2a-4242-be49-fd91fee8ffbc" data-name="trash-icon"><path class="a090726c-a38f-4c37-99c8-95cc47e0621a" d="M368,466.2H147.44c-11.72,0-21.22-12.52-21.22-28L88.12,102.16h334.2L389.23,438.24C389.23,453.68,379.73,466.2,368,466.2Z"/><path class="fb2eb5f9-051b-43be-9d14-86287c00a09a" d="M60.7,48.31h389a8.59,8.59,0,0,1,8.59,8.59V80.14a0,0,0,0,1,0,0H52.12a0,0,0,0,1,0,0V56.89A8.59,8.59,0,0,1,60.7,48.31Z"/><rect class="fb2eb5f9-051b-43be-9d14-86287c00a09a" x="189.07" y="22.02" width="132.29" height="52.57" rx="20.87"/><rect class="ed4ae1f6-bbf5-410f-9f6e-742958b1ac06" x="250.88" y="164.18" width="8.68" height="240" rx="4.34"/><rect class="ed4ae1f6-bbf5-410f-9f6e-742958b1ac06" x="188.04" y="164.76" width="8.68" height="240" rx="4.34" transform="translate(-26.71 20) rotate(-5.56)"/><rect class="ed4ae1f6-bbf5-410f-9f6e-742958b1ac06" x="312.42" y="164.76" width="8.68" height="240" rx="4.34" transform="translate(37.61 -36.96) rotate(7.1)"/></g></svg>