<svg xmlns="http://www.w3.org/2000/svg" viewBox="0 0 500 500"><defs><style>.cls-1{fill:#fff;}</style></defs><g id="watchers-icon"><path class="cls-1" d="M376,143.42a79.68,79.68,0,0,1-39.9,69.08,105.63,105.63,0,0,0-12.52-.74h-50a79.76,79.76,0,0,0-9.19-141.42A79.74,79.74,0,0,1,376,143.42Z"/><path class="cls-1" d="M336.06,212.5a79,79,0,0,1-29.95,10,104,104,0,0,0-33.84-10l1.26-.74h50A105.63,105.63,0,0,1,336.06,212.5Z"/><path class="cls-1" d="M428.49,316.71v109.6a10,10,0,0,1-10,10h-63.8a10,10,0,0,0,10-10V316.71a104.92,104.92,0,0,0-58.58-94.17,79,79,0,0,0,29.95-10A105,105,0,0,1,428.49,316.71Z"/><path class="cls-1" d="M293.46,143.42a79.69,79.69,0,0,1-38.63,68.34l-1.26.74a78.52,78.52,0,0,1-7.93,4,79.39,79.39,0,0,1-31.9,6.64q-3.78,0-7.46-.35a79.74,79.74,0,1,1,87.18-79.38Z"/><path class="cls-1" d="M346,316.71v109.6a10,10,0,0,1-10,10H91.48a10,10,0,0,1-10-10V320.57A108.74,108.74,0,0,1,190.29,211.76H241q3.24,0,6.44.21t6.09.53A104.92,104.92,0,0,1,346,316.71Z"/></g></svg>