<svg style="height: 1.5em;" xmlns="http://www.w3.org/2000/svg" viewBox="0 0 334.45 460">
  <path fill="#fff" d="M271.41 190.25a63 63 0 0 0-63 63v190.17h126.04V253.28a63 63 0 0 0-63.04-63.03z"/>
  <circle cx="268.81" cy="129.3" r="52.62" fill="#fff"/>
  <path fill="#fff" d="M66.15 185.75A66.15 66.15 0 0 0 0 251.9v199.52h132.29V251.89a66.15 66.15 0 0 0-66.14-66.14z"/>
  <circle cx="63.41" cy="121.79" r="55.21" fill="#fff"/>
  <path fill="#fff" d="M170.23 145.13a78.39 78.39 0 0 0-78.39 78.39V460h156.78V223.52a78.39 78.39 0 0 0-78.39-78.39z"/>
  <circle cx="166.98" cy="65.44" r="65.44" fill="#fff"/>
</svg>